<mxfile host="Electron" modified="2023-05-27T14:15:57.020Z" agent="Mozilla/5.0 (Macintosh; Intel Mac OS X 10_15_7) AppleWebKit/537.36 (KHTML, like Gecko) draw.io/21.2.1 Chrome/112.0.5615.87 Electron/24.1.2 Safari/537.36" etag="MU5XmhDuoivNfqNW_Ubf" version="21.2.1" type="device">
  <diagram name="Page-1" id="H1nZVYqxkzLZFgEqRADx">
    <mxGraphModel dx="3814" dy="3057" grid="1" gridSize="10" guides="1" tooltips="1" connect="1" arrows="1" fold="1" page="1" pageScale="1" pageWidth="850" pageHeight="1100" math="0" shadow="0">
      <root>
        <mxCell id="0" />
        <mxCell id="1" parent="0" />
        <mxCell id="AsBp8XiL8Dx4Y6rQVwFH-10109" value="R, W: 104, H: 83, ORDER: 19, GC: {40, 28, 36, 12, 10, 6, 4, 2, 5, 11, 3, 13, 8, 20, 43, 9, 34, 7, 27} " style="text;html=1;strokeColor=none;fillColor=none;align=center;verticalAlign=middle;whiteSpace=wrap;rounded=0;" parent="1" vertex="1">
          <mxGeometry x="-1090" y="2250" width="1040" height="30" as="geometry" />
        </mxCell>
        <mxCell id="ixfX1j7rMJyE5IX1uUY6-7" value="R, W: 104, H: 99, ORDER: 18, GC: {24, 17, 27, 7, 10, 31, 36, 28, 9, 16, 29, 3, 13, 44, 18, 8, 34, 26} " style="text;html=1;strokeColor=none;fillColor=none;align=center;verticalAlign=middle;whiteSpace=wrap;rounded=0;" vertex="1" parent="1">
          <mxGeometry x="-1090" y="1140" width="1040" height="30" as="geometry" />
        </mxCell>
        <mxCell id="ixfX1j7rMJyE5IX1uUY6-45" value="R, W: 104, H: 78, ORDER: 20, GC: {37, 21, 22, 16, 4, 1, 24, 3, 10, 7, 8, 2, 6, 20, 14, 17, 34, 41, 12, 29} " style="text;html=1;strokeColor=none;fillColor=none;align=center;verticalAlign=middle;whiteSpace=wrap;rounded=0;" vertex="1" parent="1">
          <mxGeometry x="-1075" y="3395" width="1040" height="30" as="geometry" />
        </mxCell>
        <mxCell id="ixfX1j7rMJyE5IX1uUY6-46" value="R, W: 104, H: 78, ORDER: 20, GC: {37, 33, 34, 4, 16, 13, 14, 3, 10, 20, 8, 6, 2, 24, 41, 12, 7, 5, 22, 17} " style="text;html=1;strokeColor=none;fillColor=none;align=center;verticalAlign=middle;whiteSpace=wrap;rounded=0;" vertex="1" parent="1">
          <mxGeometry x="-1090" y="4525" width="1040" height="30" as="geometry" />
        </mxCell>
        <mxCell id="ixfX1j7rMJyE5IX1uUY6-47" value="R, W: 104, H: 91, ORDER: 21, GC: {23, 14, 19, 9, 5, 20, 11, 13, 28, 12, 8, 25, 7, 18, 4, 32, 29, 1, 31, 43, 30} " style="text;html=1;strokeColor=none;fillColor=none;align=center;verticalAlign=middle;whiteSpace=wrap;rounded=0;" vertex="1" parent="1">
          <mxGeometry x="-1090" y="85" width="1040" height="30" as="geometry" />
        </mxCell>
        <mxCell id="ixfX1j7rMJyE5IX1uUY6-69" value="20 104 78 B" style="text;html=1;align=center;verticalAlign=middle;resizable=0;points=[];autosize=1;strokeColor=none;fillColor=none;fontSize=23;" vertex="1" parent="1">
          <mxGeometry x="-750" y="4470" width="150" height="40" as="geometry" />
        </mxCell>
        <mxCell id="ixfX1j7rMJyE5IX1uUY6-70" value="20 104 78 A" style="text;html=1;align=center;verticalAlign=middle;resizable=0;points=[];autosize=1;strokeColor=none;fillColor=none;fontSize=23;" vertex="1" parent="1">
          <mxGeometry x="-685" y="3340" width="150" height="40" as="geometry" />
        </mxCell>
        <mxCell id="ixfX1j7rMJyE5IX1uUY6-71" value="" style="group;flipV=1;" vertex="1" connectable="0" parent="1">
          <mxGeometry x="-1075" y="3445" width="1040" height="780" as="geometry" />
        </mxCell>
        <mxCell id="ixfX1j7rMJyE5IX1uUY6-72" value="37" style="rounded=0;whiteSpace=wrap;html=1;" vertex="1" parent="ixfX1j7rMJyE5IX1uUY6-71">
          <mxGeometry y="410" width="370" height="370" as="geometry" />
        </mxCell>
        <mxCell id="ixfX1j7rMJyE5IX1uUY6-73" value="21" style="rounded=0;whiteSpace=wrap;html=1;" vertex="1" parent="ixfX1j7rMJyE5IX1uUY6-71">
          <mxGeometry x="370" y="570" width="210" height="210" as="geometry" />
        </mxCell>
        <mxCell id="ixfX1j7rMJyE5IX1uUY6-74" value="22" style="rounded=0;whiteSpace=wrap;html=1;" vertex="1" parent="ixfX1j7rMJyE5IX1uUY6-71">
          <mxGeometry x="580" y="560" width="220" height="220" as="geometry" />
        </mxCell>
        <mxCell id="ixfX1j7rMJyE5IX1uUY6-75" value="16" style="rounded=0;whiteSpace=wrap;html=1;" vertex="1" parent="ixfX1j7rMJyE5IX1uUY6-71">
          <mxGeometry x="370" y="410" width="160" height="160" as="geometry" />
        </mxCell>
        <mxCell id="ixfX1j7rMJyE5IX1uUY6-76" value="4" style="rounded=0;whiteSpace=wrap;html=1;" vertex="1" parent="ixfX1j7rMJyE5IX1uUY6-71">
          <mxGeometry x="530" y="530" width="40" height="40" as="geometry" />
        </mxCell>
        <mxCell id="ixfX1j7rMJyE5IX1uUY6-77" value="1" style="rounded=0;whiteSpace=wrap;html=1;" vertex="1" parent="ixfX1j7rMJyE5IX1uUY6-71">
          <mxGeometry x="570" y="560" width="10" height="10" as="geometry" />
        </mxCell>
        <mxCell id="ixfX1j7rMJyE5IX1uUY6-78" value="24" style="rounded=0;whiteSpace=wrap;html=1;" vertex="1" parent="ixfX1j7rMJyE5IX1uUY6-71">
          <mxGeometry x="800" y="540" width="240" height="240" as="geometry" />
        </mxCell>
        <mxCell id="ixfX1j7rMJyE5IX1uUY6-79" value="3" style="rounded=0;whiteSpace=wrap;html=1;" vertex="1" parent="ixfX1j7rMJyE5IX1uUY6-71">
          <mxGeometry x="570" y="530" width="30" height="30" as="geometry" />
        </mxCell>
        <mxCell id="ixfX1j7rMJyE5IX1uUY6-80" value="10" style="rounded=0;whiteSpace=wrap;html=1;" vertex="1" parent="ixfX1j7rMJyE5IX1uUY6-71">
          <mxGeometry x="600" y="460" width="100" height="100" as="geometry" />
        </mxCell>
        <mxCell id="ixfX1j7rMJyE5IX1uUY6-81" value="7" style="rounded=0;whiteSpace=wrap;html=1;" vertex="1" parent="ixfX1j7rMJyE5IX1uUY6-71">
          <mxGeometry x="530" y="460" width="70" height="70" as="geometry" />
        </mxCell>
        <mxCell id="ixfX1j7rMJyE5IX1uUY6-82" value="8" style="rounded=0;whiteSpace=wrap;html=1;" vertex="1" parent="ixfX1j7rMJyE5IX1uUY6-71">
          <mxGeometry x="700" y="480" width="80" height="80" as="geometry" />
        </mxCell>
        <mxCell id="ixfX1j7rMJyE5IX1uUY6-83" value="2" style="rounded=0;whiteSpace=wrap;html=1;" vertex="1" parent="ixfX1j7rMJyE5IX1uUY6-71">
          <mxGeometry x="780" y="540" width="20" height="20" as="geometry" />
        </mxCell>
        <mxCell id="ixfX1j7rMJyE5IX1uUY6-84" value="6" style="rounded=0;whiteSpace=wrap;html=1;" vertex="1" parent="ixfX1j7rMJyE5IX1uUY6-71">
          <mxGeometry x="780" y="480" width="60" height="60" as="geometry" />
        </mxCell>
        <mxCell id="ixfX1j7rMJyE5IX1uUY6-85" value="20" style="rounded=0;whiteSpace=wrap;html=1;" vertex="1" parent="ixfX1j7rMJyE5IX1uUY6-71">
          <mxGeometry x="840" y="340" width="200" height="200" as="geometry" />
        </mxCell>
        <mxCell id="ixfX1j7rMJyE5IX1uUY6-86" value="14" style="rounded=0;whiteSpace=wrap;html=1;" vertex="1" parent="ixfX1j7rMJyE5IX1uUY6-71">
          <mxGeometry x="700" y="340" width="140" height="140" as="geometry" />
        </mxCell>
        <mxCell id="ixfX1j7rMJyE5IX1uUY6-87" value="17" style="rounded=0;whiteSpace=wrap;html=1;" vertex="1" parent="ixfX1j7rMJyE5IX1uUY6-71">
          <mxGeometry x="530" y="290" width="170" height="170" as="geometry" />
        </mxCell>
        <mxCell id="ixfX1j7rMJyE5IX1uUY6-88" value="34" style="rounded=0;whiteSpace=wrap;html=1;" vertex="1" parent="ixfX1j7rMJyE5IX1uUY6-71">
          <mxGeometry x="700" width="340" height="340" as="geometry" />
        </mxCell>
        <mxCell id="ixfX1j7rMJyE5IX1uUY6-89" value="41" style="rounded=0;whiteSpace=wrap;html=1;" vertex="1" parent="ixfX1j7rMJyE5IX1uUY6-71">
          <mxGeometry width="410" height="410" as="geometry" />
        </mxCell>
        <mxCell id="ixfX1j7rMJyE5IX1uUY6-90" value="12" style="rounded=0;whiteSpace=wrap;html=1;" vertex="1" parent="ixfX1j7rMJyE5IX1uUY6-71">
          <mxGeometry x="410" y="290" width="120" height="120" as="geometry" />
        </mxCell>
        <mxCell id="ixfX1j7rMJyE5IX1uUY6-91" value="29" style="rounded=0;whiteSpace=wrap;html=1;" vertex="1" parent="ixfX1j7rMJyE5IX1uUY6-71">
          <mxGeometry x="410" width="290" height="290" as="geometry" />
        </mxCell>
        <mxCell id="ixfX1j7rMJyE5IX1uUY6-92" value="" style="group;flipV=1;" vertex="1" connectable="0" parent="1">
          <mxGeometry x="-1090" y="4575" width="1040" height="780" as="geometry" />
        </mxCell>
        <mxCell id="ixfX1j7rMJyE5IX1uUY6-93" value="37" style="rounded=0;whiteSpace=wrap;html=1;" vertex="1" parent="ixfX1j7rMJyE5IX1uUY6-92">
          <mxGeometry y="410" width="370" height="370" as="geometry" />
        </mxCell>
        <mxCell id="ixfX1j7rMJyE5IX1uUY6-94" value="33" style="rounded=0;whiteSpace=wrap;html=1;" vertex="1" parent="ixfX1j7rMJyE5IX1uUY6-92">
          <mxGeometry x="370" y="450" width="330" height="330" as="geometry" />
        </mxCell>
        <mxCell id="ixfX1j7rMJyE5IX1uUY6-95" value="34" style="rounded=0;whiteSpace=wrap;html=1;" vertex="1" parent="ixfX1j7rMJyE5IX1uUY6-92">
          <mxGeometry x="700" y="440" width="340" height="340" as="geometry" />
        </mxCell>
        <mxCell id="ixfX1j7rMJyE5IX1uUY6-96" value="4" style="rounded=0;whiteSpace=wrap;html=1;" vertex="1" parent="ixfX1j7rMJyE5IX1uUY6-92">
          <mxGeometry x="370" y="410" width="40" height="40" as="geometry" />
        </mxCell>
        <mxCell id="ixfX1j7rMJyE5IX1uUY6-97" value="16" style="rounded=0;whiteSpace=wrap;html=1;" vertex="1" parent="ixfX1j7rMJyE5IX1uUY6-92">
          <mxGeometry x="410" y="290" width="160" height="160" as="geometry" />
        </mxCell>
        <mxCell id="ixfX1j7rMJyE5IX1uUY6-98" value="13" style="rounded=0;whiteSpace=wrap;html=1;" vertex="1" parent="ixfX1j7rMJyE5IX1uUY6-92">
          <mxGeometry x="570" y="320" width="130" height="130" as="geometry" />
        </mxCell>
        <mxCell id="ixfX1j7rMJyE5IX1uUY6-99" value="14" style="rounded=0;whiteSpace=wrap;html=1;" vertex="1" parent="ixfX1j7rMJyE5IX1uUY6-92">
          <mxGeometry x="700" y="300" width="140" height="140" as="geometry" />
        </mxCell>
        <mxCell id="ixfX1j7rMJyE5IX1uUY6-100" value="3" style="rounded=0;whiteSpace=wrap;html=1;" vertex="1" parent="ixfX1j7rMJyE5IX1uUY6-92">
          <mxGeometry x="570" y="290" width="30" height="30" as="geometry" />
        </mxCell>
        <mxCell id="ixfX1j7rMJyE5IX1uUY6-101" value="10" style="rounded=0;whiteSpace=wrap;html=1;" vertex="1" parent="ixfX1j7rMJyE5IX1uUY6-92">
          <mxGeometry x="600" y="220" width="100" height="100" as="geometry" />
        </mxCell>
        <mxCell id="ixfX1j7rMJyE5IX1uUY6-102" value="20" style="rounded=0;whiteSpace=wrap;html=1;" vertex="1" parent="ixfX1j7rMJyE5IX1uUY6-92">
          <mxGeometry x="840" y="240" width="200" height="200" as="geometry" />
        </mxCell>
        <mxCell id="ixfX1j7rMJyE5IX1uUY6-103" value="8" style="rounded=0;whiteSpace=wrap;html=1;" vertex="1" parent="ixfX1j7rMJyE5IX1uUY6-92">
          <mxGeometry x="700" y="220" width="80" height="80" as="geometry" />
        </mxCell>
        <mxCell id="ixfX1j7rMJyE5IX1uUY6-104" value="6" style="rounded=0;whiteSpace=wrap;html=1;" vertex="1" parent="ixfX1j7rMJyE5IX1uUY6-92">
          <mxGeometry x="780" y="240" width="60" height="60" as="geometry" />
        </mxCell>
        <mxCell id="ixfX1j7rMJyE5IX1uUY6-105" value="2" style="rounded=0;whiteSpace=wrap;html=1;" vertex="1" parent="ixfX1j7rMJyE5IX1uUY6-92">
          <mxGeometry x="780" y="220" width="20" height="20" as="geometry" />
        </mxCell>
        <mxCell id="ixfX1j7rMJyE5IX1uUY6-106" value="24" style="rounded=0;whiteSpace=wrap;html=1;" vertex="1" parent="ixfX1j7rMJyE5IX1uUY6-92">
          <mxGeometry x="800" width="240" height="240" as="geometry" />
        </mxCell>
        <mxCell id="ixfX1j7rMJyE5IX1uUY6-107" value="41" style="rounded=0;whiteSpace=wrap;html=1;" vertex="1" parent="ixfX1j7rMJyE5IX1uUY6-92">
          <mxGeometry width="410" height="410" as="geometry" />
        </mxCell>
        <mxCell id="ixfX1j7rMJyE5IX1uUY6-108" value="12" style="rounded=0;whiteSpace=wrap;html=1;" vertex="1" parent="ixfX1j7rMJyE5IX1uUY6-92">
          <mxGeometry x="410" y="170" width="120" height="120" as="geometry" />
        </mxCell>
        <mxCell id="ixfX1j7rMJyE5IX1uUY6-109" value="7" style="rounded=0;whiteSpace=wrap;html=1;" vertex="1" parent="ixfX1j7rMJyE5IX1uUY6-92">
          <mxGeometry x="530" y="220" width="70" height="70" as="geometry" />
        </mxCell>
        <mxCell id="ixfX1j7rMJyE5IX1uUY6-110" value="5" style="rounded=0;whiteSpace=wrap;html=1;" vertex="1" parent="ixfX1j7rMJyE5IX1uUY6-92">
          <mxGeometry x="530" y="170" width="50" height="50" as="geometry" />
        </mxCell>
        <mxCell id="ixfX1j7rMJyE5IX1uUY6-111" value="22" style="rounded=0;whiteSpace=wrap;html=1;" vertex="1" parent="ixfX1j7rMJyE5IX1uUY6-92">
          <mxGeometry x="580" width="220" height="220" as="geometry" />
        </mxCell>
        <mxCell id="ixfX1j7rMJyE5IX1uUY6-112" value="17" style="rounded=0;whiteSpace=wrap;html=1;" vertex="1" parent="ixfX1j7rMJyE5IX1uUY6-92">
          <mxGeometry x="410" width="170" height="170" as="geometry" />
        </mxCell>
        <mxCell id="ixfX1j7rMJyE5IX1uUY6-113" value="" style="group;flipV=1;" vertex="1" connectable="0" parent="1">
          <mxGeometry x="-1080" y="2300" width="1040" height="830" as="geometry" />
        </mxCell>
        <mxCell id="ixfX1j7rMJyE5IX1uUY6-26" value="40" style="rounded=0;whiteSpace=wrap;html=1;" vertex="1" parent="ixfX1j7rMJyE5IX1uUY6-113">
          <mxGeometry y="430" width="400" height="400" as="geometry" />
        </mxCell>
        <mxCell id="ixfX1j7rMJyE5IX1uUY6-27" value="28" style="rounded=0;whiteSpace=wrap;html=1;" vertex="1" parent="ixfX1j7rMJyE5IX1uUY6-113">
          <mxGeometry x="400" y="550" width="280" height="280" as="geometry" />
        </mxCell>
        <mxCell id="ixfX1j7rMJyE5IX1uUY6-28" value="36" style="rounded=0;whiteSpace=wrap;html=1;" vertex="1" parent="ixfX1j7rMJyE5IX1uUY6-113">
          <mxGeometry x="680" y="470" width="360" height="360" as="geometry" />
        </mxCell>
        <mxCell id="ixfX1j7rMJyE5IX1uUY6-29" value="12" style="rounded=0;whiteSpace=wrap;html=1;" vertex="1" parent="ixfX1j7rMJyE5IX1uUY6-113">
          <mxGeometry x="400" y="430" width="120" height="120" as="geometry" />
        </mxCell>
        <mxCell id="ixfX1j7rMJyE5IX1uUY6-30" value="10" style="rounded=0;whiteSpace=wrap;html=1;" vertex="1" parent="ixfX1j7rMJyE5IX1uUY6-113">
          <mxGeometry x="520" y="450" width="100" height="100" as="geometry" />
        </mxCell>
        <mxCell id="ixfX1j7rMJyE5IX1uUY6-31" value="6" style="rounded=0;whiteSpace=wrap;html=1;" vertex="1" parent="ixfX1j7rMJyE5IX1uUY6-113">
          <mxGeometry x="620" y="490" width="60" height="60" as="geometry" />
        </mxCell>
        <mxCell id="ixfX1j7rMJyE5IX1uUY6-32" value="4" style="rounded=0;whiteSpace=wrap;html=1;" vertex="1" parent="ixfX1j7rMJyE5IX1uUY6-113">
          <mxGeometry x="620" y="450" width="40" height="40" as="geometry" />
        </mxCell>
        <mxCell id="ixfX1j7rMJyE5IX1uUY6-33" value="2" style="rounded=0;whiteSpace=wrap;html=1;" vertex="1" parent="ixfX1j7rMJyE5IX1uUY6-113">
          <mxGeometry x="660" y="470" width="20" height="20" as="geometry" />
        </mxCell>
        <mxCell id="ixfX1j7rMJyE5IX1uUY6-34" value="5" style="rounded=0;whiteSpace=wrap;html=1;" vertex="1" parent="ixfX1j7rMJyE5IX1uUY6-113">
          <mxGeometry x="660" y="420" width="50" height="50" as="geometry" />
        </mxCell>
        <mxCell id="ixfX1j7rMJyE5IX1uUY6-35" value="11" style="rounded=0;whiteSpace=wrap;html=1;" vertex="1" parent="ixfX1j7rMJyE5IX1uUY6-113">
          <mxGeometry x="520" y="340" width="110" height="110" as="geometry" />
        </mxCell>
        <mxCell id="ixfX1j7rMJyE5IX1uUY6-36" value="3" style="rounded=0;whiteSpace=wrap;html=1;" vertex="1" parent="ixfX1j7rMJyE5IX1uUY6-113">
          <mxGeometry x="630" y="420" width="30" height="30" as="geometry" />
        </mxCell>
        <mxCell id="ixfX1j7rMJyE5IX1uUY6-37" value="13" style="rounded=0;whiteSpace=wrap;html=1;" vertex="1" parent="ixfX1j7rMJyE5IX1uUY6-113">
          <mxGeometry x="710" y="340" width="130" height="130" as="geometry" />
        </mxCell>
        <mxCell id="ixfX1j7rMJyE5IX1uUY6-38" value="8" style="rounded=0;whiteSpace=wrap;html=1;" vertex="1" parent="ixfX1j7rMJyE5IX1uUY6-113">
          <mxGeometry x="630" y="340" width="80" height="80" as="geometry" />
        </mxCell>
        <mxCell id="ixfX1j7rMJyE5IX1uUY6-39" value="20" style="rounded=0;whiteSpace=wrap;html=1;" vertex="1" parent="ixfX1j7rMJyE5IX1uUY6-113">
          <mxGeometry x="840" y="270" width="200" height="200" as="geometry" />
        </mxCell>
        <mxCell id="ixfX1j7rMJyE5IX1uUY6-40" value="43" style="rounded=0;whiteSpace=wrap;html=1;" vertex="1" parent="ixfX1j7rMJyE5IX1uUY6-113">
          <mxGeometry width="430" height="430" as="geometry" />
        </mxCell>
        <mxCell id="ixfX1j7rMJyE5IX1uUY6-41" value="9" style="rounded=0;whiteSpace=wrap;html=1;" vertex="1" parent="ixfX1j7rMJyE5IX1uUY6-113">
          <mxGeometry x="430" y="340" width="90" height="90" as="geometry" />
        </mxCell>
        <mxCell id="ixfX1j7rMJyE5IX1uUY6-42" value="34" style="rounded=0;whiteSpace=wrap;html=1;" vertex="1" parent="ixfX1j7rMJyE5IX1uUY6-113">
          <mxGeometry x="430" width="340" height="340" as="geometry" />
        </mxCell>
        <mxCell id="ixfX1j7rMJyE5IX1uUY6-43" value="7" style="rounded=0;whiteSpace=wrap;html=1;" vertex="1" parent="ixfX1j7rMJyE5IX1uUY6-113">
          <mxGeometry x="770" y="270" width="70" height="70" as="geometry" />
        </mxCell>
        <mxCell id="ixfX1j7rMJyE5IX1uUY6-44" value="27" style="rounded=0;whiteSpace=wrap;html=1;" vertex="1" parent="ixfX1j7rMJyE5IX1uUY6-113">
          <mxGeometry x="770" width="270" height="270" as="geometry" />
        </mxCell>
        <mxCell id="ixfX1j7rMJyE5IX1uUY6-114" value="" style="group;flipV=1;" vertex="1" connectable="0" parent="1">
          <mxGeometry x="-1090" y="1190" width="1040" height="990" as="geometry" />
        </mxCell>
        <mxCell id="ixfX1j7rMJyE5IX1uUY6-8" value="24" style="rounded=0;whiteSpace=wrap;html=1;" vertex="1" parent="ixfX1j7rMJyE5IX1uUY6-114">
          <mxGeometry y="750" width="240" height="240" as="geometry" />
        </mxCell>
        <mxCell id="ixfX1j7rMJyE5IX1uUY6-9" value="17" style="rounded=0;whiteSpace=wrap;html=1;" vertex="1" parent="ixfX1j7rMJyE5IX1uUY6-114">
          <mxGeometry x="240" y="820" width="170" height="170" as="geometry" />
        </mxCell>
        <mxCell id="ixfX1j7rMJyE5IX1uUY6-10" value="27" style="rounded=0;whiteSpace=wrap;html=1;" vertex="1" parent="ixfX1j7rMJyE5IX1uUY6-114">
          <mxGeometry x="410" y="720" width="270" height="270" as="geometry" />
        </mxCell>
        <mxCell id="ixfX1j7rMJyE5IX1uUY6-11" value="7" style="rounded=0;whiteSpace=wrap;html=1;" vertex="1" parent="ixfX1j7rMJyE5IX1uUY6-114">
          <mxGeometry x="240" y="750" width="70" height="70" as="geometry" />
        </mxCell>
        <mxCell id="ixfX1j7rMJyE5IX1uUY6-12" value="10" style="rounded=0;whiteSpace=wrap;html=1;" vertex="1" parent="ixfX1j7rMJyE5IX1uUY6-114">
          <mxGeometry x="310" y="720" width="100" height="100" as="geometry" />
        </mxCell>
        <mxCell id="ixfX1j7rMJyE5IX1uUY6-13" value="31" style="rounded=0;whiteSpace=wrap;html=1;" vertex="1" parent="ixfX1j7rMJyE5IX1uUY6-114">
          <mxGeometry y="440" width="310" height="310" as="geometry" />
        </mxCell>
        <mxCell id="ixfX1j7rMJyE5IX1uUY6-14" value="36" style="rounded=0;whiteSpace=wrap;html=1;" vertex="1" parent="ixfX1j7rMJyE5IX1uUY6-114">
          <mxGeometry x="680" y="630" width="360" height="360" as="geometry" />
        </mxCell>
        <mxCell id="ixfX1j7rMJyE5IX1uUY6-15" value="28" style="rounded=0;whiteSpace=wrap;html=1;" vertex="1" parent="ixfX1j7rMJyE5IX1uUY6-114">
          <mxGeometry x="310" y="440" width="280" height="280" as="geometry" />
        </mxCell>
        <mxCell id="ixfX1j7rMJyE5IX1uUY6-16" value="9" style="rounded=0;whiteSpace=wrap;html=1;" vertex="1" parent="ixfX1j7rMJyE5IX1uUY6-114">
          <mxGeometry x="590" y="630" width="90" height="90" as="geometry" />
        </mxCell>
        <mxCell id="ixfX1j7rMJyE5IX1uUY6-17" value="16" style="rounded=0;whiteSpace=wrap;html=1;" vertex="1" parent="ixfX1j7rMJyE5IX1uUY6-114">
          <mxGeometry x="590" y="470" width="160" height="160" as="geometry" />
        </mxCell>
        <mxCell id="ixfX1j7rMJyE5IX1uUY6-18" value="29" style="rounded=0;whiteSpace=wrap;html=1;" vertex="1" parent="ixfX1j7rMJyE5IX1uUY6-114">
          <mxGeometry x="750" y="340" width="290" height="290" as="geometry" />
        </mxCell>
        <mxCell id="ixfX1j7rMJyE5IX1uUY6-19" value="3" style="rounded=0;whiteSpace=wrap;html=1;" vertex="1" parent="ixfX1j7rMJyE5IX1uUY6-114">
          <mxGeometry x="590" y="440" width="30" height="30" as="geometry" />
        </mxCell>
        <mxCell id="ixfX1j7rMJyE5IX1uUY6-20" value="13" style="rounded=0;whiteSpace=wrap;html=1;" vertex="1" parent="ixfX1j7rMJyE5IX1uUY6-114">
          <mxGeometry x="620" y="340" width="130" height="130" as="geometry" />
        </mxCell>
        <mxCell id="ixfX1j7rMJyE5IX1uUY6-21" value="44" style="rounded=0;whiteSpace=wrap;html=1;" vertex="1" parent="ixfX1j7rMJyE5IX1uUY6-114">
          <mxGeometry width="440" height="440" as="geometry" />
        </mxCell>
        <mxCell id="ixfX1j7rMJyE5IX1uUY6-22" value="18" style="rounded=0;whiteSpace=wrap;html=1;" vertex="1" parent="ixfX1j7rMJyE5IX1uUY6-114">
          <mxGeometry x="440" y="260" width="180" height="180" as="geometry" />
        </mxCell>
        <mxCell id="ixfX1j7rMJyE5IX1uUY6-23" value="8" style="rounded=0;whiteSpace=wrap;html=1;" vertex="1" parent="ixfX1j7rMJyE5IX1uUY6-114">
          <mxGeometry x="620" y="260" width="80" height="80" as="geometry" />
        </mxCell>
        <mxCell id="ixfX1j7rMJyE5IX1uUY6-24" value="34" style="rounded=0;whiteSpace=wrap;html=1;" vertex="1" parent="ixfX1j7rMJyE5IX1uUY6-114">
          <mxGeometry x="700" width="340" height="340" as="geometry" />
        </mxCell>
        <mxCell id="ixfX1j7rMJyE5IX1uUY6-25" value="26" style="rounded=0;whiteSpace=wrap;html=1;" vertex="1" parent="ixfX1j7rMJyE5IX1uUY6-114">
          <mxGeometry x="440" width="260" height="260" as="geometry" />
        </mxCell>
        <mxCell id="ixfX1j7rMJyE5IX1uUY6-115" value="" style="group;flipV=1;" vertex="1" connectable="0" parent="1">
          <mxGeometry x="-1090" y="135" width="1040" height="910" as="geometry" />
        </mxCell>
        <mxCell id="ixfX1j7rMJyE5IX1uUY6-48" value="23" style="rounded=0;whiteSpace=wrap;html=1;" vertex="1" parent="ixfX1j7rMJyE5IX1uUY6-115">
          <mxGeometry y="680" width="230" height="230" as="geometry" />
        </mxCell>
        <mxCell id="ixfX1j7rMJyE5IX1uUY6-49" value="14" style="rounded=0;whiteSpace=wrap;html=1;" vertex="1" parent="ixfX1j7rMJyE5IX1uUY6-115">
          <mxGeometry x="230" y="770" width="140" height="140" as="geometry" />
        </mxCell>
        <mxCell id="ixfX1j7rMJyE5IX1uUY6-50" value="19" style="rounded=0;whiteSpace=wrap;html=1;" vertex="1" parent="ixfX1j7rMJyE5IX1uUY6-115">
          <mxGeometry x="370" y="720" width="190" height="190" as="geometry" />
        </mxCell>
        <mxCell id="ixfX1j7rMJyE5IX1uUY6-51" value="9" style="rounded=0;whiteSpace=wrap;html=1;" vertex="1" parent="ixfX1j7rMJyE5IX1uUY6-115">
          <mxGeometry x="230" y="680" width="90" height="90" as="geometry" />
        </mxCell>
        <mxCell id="ixfX1j7rMJyE5IX1uUY6-52" value="5" style="rounded=0;whiteSpace=wrap;html=1;" vertex="1" parent="ixfX1j7rMJyE5IX1uUY6-115">
          <mxGeometry x="320" y="720" width="50" height="50" as="geometry" />
        </mxCell>
        <mxCell id="ixfX1j7rMJyE5IX1uUY6-53" value="20" style="rounded=0;whiteSpace=wrap;html=1;" vertex="1" parent="ixfX1j7rMJyE5IX1uUY6-115">
          <mxGeometry x="560" y="710" width="200" height="200" as="geometry" />
        </mxCell>
        <mxCell id="ixfX1j7rMJyE5IX1uUY6-54" value="11" style="rounded=0;whiteSpace=wrap;html=1;" vertex="1" parent="ixfX1j7rMJyE5IX1uUY6-115">
          <mxGeometry x="320" y="610" width="110" height="110" as="geometry" />
        </mxCell>
        <mxCell id="ixfX1j7rMJyE5IX1uUY6-55" value="13" style="rounded=0;whiteSpace=wrap;html=1;" vertex="1" parent="ixfX1j7rMJyE5IX1uUY6-115">
          <mxGeometry x="430" y="590" width="130" height="130" as="geometry" />
        </mxCell>
        <mxCell id="ixfX1j7rMJyE5IX1uUY6-56" value="28" style="rounded=0;whiteSpace=wrap;html=1;" vertex="1" parent="ixfX1j7rMJyE5IX1uUY6-115">
          <mxGeometry x="760" y="630" width="280" height="280" as="geometry" />
        </mxCell>
        <mxCell id="ixfX1j7rMJyE5IX1uUY6-57" value="12" style="rounded=0;whiteSpace=wrap;html=1;" vertex="1" parent="ixfX1j7rMJyE5IX1uUY6-115">
          <mxGeometry x="560" y="590" width="120" height="120" as="geometry" />
        </mxCell>
        <mxCell id="ixfX1j7rMJyE5IX1uUY6-58" value="8" style="rounded=0;whiteSpace=wrap;html=1;" vertex="1" parent="ixfX1j7rMJyE5IX1uUY6-115">
          <mxGeometry x="680" y="630" width="80" height="80" as="geometry" />
        </mxCell>
        <mxCell id="ixfX1j7rMJyE5IX1uUY6-59" value="25" style="rounded=0;whiteSpace=wrap;html=1;" vertex="1" parent="ixfX1j7rMJyE5IX1uUY6-115">
          <mxGeometry y="430" width="250" height="250" as="geometry" />
        </mxCell>
        <mxCell id="ixfX1j7rMJyE5IX1uUY6-60" value="7" style="rounded=0;whiteSpace=wrap;html=1;" vertex="1" parent="ixfX1j7rMJyE5IX1uUY6-115">
          <mxGeometry x="250" y="610" width="70" height="70" as="geometry" />
        </mxCell>
        <mxCell id="ixfX1j7rMJyE5IX1uUY6-61" value="18" style="rounded=0;whiteSpace=wrap;html=1;" vertex="1" parent="ixfX1j7rMJyE5IX1uUY6-115">
          <mxGeometry x="250" y="430" width="180" height="180" as="geometry" />
        </mxCell>
        <mxCell id="ixfX1j7rMJyE5IX1uUY6-62" value="4" style="rounded=0;whiteSpace=wrap;html=1;" vertex="1" parent="ixfX1j7rMJyE5IX1uUY6-115">
          <mxGeometry x="680" y="590" width="40" height="40" as="geometry" />
        </mxCell>
        <mxCell id="ixfX1j7rMJyE5IX1uUY6-63" value="32" style="rounded=0;whiteSpace=wrap;html=1;" vertex="1" parent="ixfX1j7rMJyE5IX1uUY6-115">
          <mxGeometry x="720" y="310" width="320" height="320" as="geometry" />
        </mxCell>
        <mxCell id="ixfX1j7rMJyE5IX1uUY6-64" value="29" style="rounded=0;whiteSpace=wrap;html=1;" vertex="1" parent="ixfX1j7rMJyE5IX1uUY6-115">
          <mxGeometry x="430" y="300" width="290" height="290" as="geometry" />
        </mxCell>
        <mxCell id="ixfX1j7rMJyE5IX1uUY6-65" value="1" style="rounded=0;whiteSpace=wrap;html=1;" vertex="1" parent="ixfX1j7rMJyE5IX1uUY6-115">
          <mxGeometry x="720" y="300" width="10" height="10" as="geometry" />
        </mxCell>
        <mxCell id="ixfX1j7rMJyE5IX1uUY6-66" value="31" style="rounded=0;whiteSpace=wrap;html=1;" vertex="1" parent="ixfX1j7rMJyE5IX1uUY6-115">
          <mxGeometry x="730" width="310" height="310" as="geometry" />
        </mxCell>
        <mxCell id="ixfX1j7rMJyE5IX1uUY6-67" value="43" style="rounded=0;whiteSpace=wrap;html=1;" vertex="1" parent="ixfX1j7rMJyE5IX1uUY6-115">
          <mxGeometry width="430" height="430" as="geometry" />
        </mxCell>
        <mxCell id="ixfX1j7rMJyE5IX1uUY6-68" value="30" style="rounded=0;whiteSpace=wrap;html=1;" vertex="1" parent="ixfX1j7rMJyE5IX1uUY6-115">
          <mxGeometry x="430" width="300" height="300" as="geometry" />
        </mxCell>
      </root>
    </mxGraphModel>
  </diagram>
</mxfile>
